<svg width="33" height="32" viewBox="0 0 33 32" fill="none" xmlns="http://www.w3.org/2000/svg">
<g clip-path="url(#clip0_129_1540)">
<path d="M27.4859 9.92814C31.1822 12.4096 31.7989 17.4058 28.5791 20.5803C28.0746 21.0782 27.3414 21.6039 26.3797 22.1574C24.592 23.1853 22.8161 24.2324 21.052 25.2986C18.2228 27.0091 15.3525 28.6362 12.5289 30.3504C11.1685 31.1769 10.1962 31.668 9.61192 31.8237C7.39752 32.4167 5.10276 31.4679 3.79468 29.6684C3.07523 28.6751 2.58377 27.1425 2.83417 25.8656C3.02478 24.8964 4.0264 24.3683 4.89347 24.9168C5.8166 25.5006 5.41484 26.6051 5.74186 27.4687C6.19034 28.651 7.4704 29.459 8.72429 29.2107C9.04944 29.1452 9.56333 28.9037 10.266 28.4861C12.6006 27.0937 14.9389 25.7081 17.281 24.3293C19.686 22.9135 22.3583 21.2289 24.9539 19.7612C25.9032 19.225 26.5447 18.7679 26.8786 18.3898C28.168 16.9332 28.2203 14.3666 26.8057 12.8692C26.5404 12.5875 26.039 12.236 25.3014 11.8147C20.3943 9.00896 14.9283 5.60649 10.7556 3.21216C9.91215 2.72786 9.0538 2.6179 8.1805 2.88229C6.62575 3.353 5.77736 4.34631 5.56246 5.95118C5.44473 6.81292 5.26347 7.5542 4.3067 7.58014C1.60644 7.65613 3.20604 3.68843 3.95726 2.62284C5.46903 0.487957 8.19545 -0.479412 10.763 0.230362C11.3411 0.389737 12.1085 0.759142 13.0653 1.33858C15.1034 2.57033 17.154 3.77924 19.217 4.96528C20.056 5.44711 20.9605 6.07349 21.7584 6.52938C24.7383 8.23185 26.6475 9.36477 27.4859 9.92814Z" fill="#FF5252"/>
<path d="M5.47647 20.1782L5.46899 13.692C5.46904 13.6794 5.46644 13.667 5.46138 13.6554C5.45632 13.6439 5.4489 13.6335 5.43959 13.625C5.43028 13.6165 5.41928 13.6099 5.40729 13.6058C5.3953 13.6017 5.38259 13.6001 5.36995 13.6012C4.81682 13.6456 4.1553 13.7364 3.67131 13.4863C2.93318 13.1045 2.66782 12.1724 3.19666 11.5108C3.72924 10.8436 4.56828 10.9455 5.33631 10.9585C5.3547 10.959 5.373 10.9558 5.39011 10.9491C5.40722 10.9424 5.42278 10.9324 5.43588 10.9196C5.44897 10.9068 5.45931 10.8915 5.46629 10.8746C5.47326 10.8577 5.47673 10.8396 5.47647 10.8214C5.46899 10.2487 5.39798 9.54452 5.65399 9.05342C6.11369 8.175 7.60677 8.09717 8.07955 9.03118C8.17922 9.22762 8.22905 9.53278 8.22905 9.94666C8.23279 13.359 8.22967 16.7615 8.21971 20.1541C8.21971 20.185 8.23231 20.2147 8.25473 20.2366C8.27716 20.2585 8.30758 20.2708 8.3393 20.2708C8.87748 20.2708 9.50163 20.2078 9.97254 20.4098C11.3778 21.014 10.9629 23.0228 9.39885 23.0173C7.92757 23.0123 6.45753 23.0191 4.98874 23.0376C4.39076 23.0438 3.97466 22.9993 3.74045 22.9042C2.74444 22.4965 2.60989 21.1289 3.52555 20.5173C4.00394 20.1948 4.77197 20.2597 5.37369 20.2782C5.44221 20.2795 5.47647 20.2461 5.47647 20.1782Z" fill="#FF5252"/>
<path d="M14.5249 14.0515C15.0407 13.4567 15.7041 12.6357 16.3824 12.241C17.7634 11.4385 19.2845 13.0768 18.1558 14.2739C17.6076 14.8546 17.0452 15.4149 16.4684 15.9548C16.4559 15.9667 16.446 15.981 16.4393 15.9968C16.4325 16.0127 16.4292 16.0297 16.4294 16.0469C16.4295 16.0641 16.4332 16.081 16.4403 16.0968C16.4473 16.1125 16.4575 16.1266 16.4702 16.1382C17.0009 16.6262 17.5211 17.1414 18.0306 17.6838C18.5675 18.2546 18.6659 18.8093 18.3258 19.348C17.1859 21.153 15.4312 19.0181 14.6258 18.2027C14.4689 18.0433 14.3175 18.0483 14.1717 18.2175C13.7407 18.7204 13.2411 19.2226 12.6731 19.7242C11.9872 20.3283 11.1389 20.1152 10.6287 19.4388C9.76163 18.2879 11.6004 16.9092 12.3685 16.192C12.39 16.172 12.4073 16.1479 12.4192 16.1211C12.4311 16.0943 12.4374 16.0654 12.4377 16.0362C12.4381 16.0069 12.4325 15.9779 12.4212 15.9508C12.4099 15.9238 12.3933 15.8993 12.3722 15.8788C11.791 15.3099 10.7016 14.4407 10.4493 13.742C9.92795 12.3058 11.8658 11.4719 12.8468 12.5004C13.3452 13.0242 13.8503 13.5431 14.3624 14.0571C14.4197 14.1139 14.4739 14.1121 14.5249 14.0515Z" fill="#FF5252"/>
</g>
<defs>
<clipPath id="clip0_129_1540">
<rect width="32" height="32" fill="white" transform="translate(0.716797)"/>
</clipPath>
</defs>
</svg>
