<svg width="24" height="24" viewBox="0 0 24 24" fill="none" xmlns="http://www.w3.org/2000/svg">
<path d="M2 9L2 15C2 20 4 22 9 22L15 22C20 22 22 20 22 15L22 9C22 4 20 2 15 2L9 2C4 2 2 4 2 9Z" stroke="#FF5252" stroke-width="1.5" stroke-linecap="round" stroke-linejoin="round"/>
<path d="M5.4999 15.57L9.3999 15.57" stroke="#FF5252" stroke-width="1.5" stroke-miterlimit="10" stroke-linecap="round" stroke-linejoin="round"/>
<path d="M16.55 15.57L18.5 15.57" stroke="#FF5252" stroke-width="1.5" stroke-miterlimit="10" stroke-linecap="round" stroke-linejoin="round"/>
<path d="M11.3498 15.57C11.3498 17.0059 12.5139 18.17 13.9498 18.17C15.3857 18.17 16.5498 17.0059 16.5498 15.57C16.5498 14.1341 15.3857 12.97 13.9498 12.97C12.5139 12.97 11.3498 14.1341 11.3498 15.57Z" stroke="#FF5252" stroke-width="1.5" stroke-miterlimit="10" stroke-linecap="round" stroke-linejoin="round"/>
<path d="M5.50019 8.42999L7.4502 8.42999" stroke="#FF5252" stroke-width="1.5" stroke-miterlimit="10" stroke-linecap="round" stroke-linejoin="round"/>
<path d="M14.6 8.42999L18.5 8.42999" stroke="#FF5252" stroke-width="1.5" stroke-miterlimit="10" stroke-linecap="round" stroke-linejoin="round"/>
<path d="M7.4499 8.43C7.4499 9.86594 8.61396 11.03 10.0499 11.03C11.4858 11.03 12.6499 9.86594 12.6499 8.43C12.6499 6.99406 11.4858 5.83 10.0499 5.83C8.61396 5.83 7.4499 6.99406 7.4499 8.43Z" stroke="#FF5252" stroke-width="1.5" stroke-miterlimit="10" stroke-linecap="round" stroke-linejoin="round"/>
</svg>
