<svg xmlns="http://www.w3.org/2000/svg" width="12" height="13" fill="none"><g fill="#fff"><path d="M2.116 4.17.175 6.112c-.233.233-.233.543 0 .776L2.116 8.83c.234.233.544.233.777 0l1.942-1.942c.233-.233.233-.543 0-.776L2.893 4.17c-.233-.233-.543-.233-.776 0ZM5.612.675 3.67 2.617c-.233.233-.233.543 0 .776l1.942 1.942c.233.233.543.233.776 0L8.33 3.393c.233-.233.233-.543 0-.776L6.388.675c-.233-.233-.543-.233-.776 0ZM5.612 7.665 3.67 9.607c-.233.233-.233.543 0 .777l1.942 1.941c.233.233.543.233.776 0l1.942-1.941c.233-.234.233-.544 0-.777L6.388 7.665c-.233-.233-.543-.233-.776 0ZM9.107 4.17 7.165 6.112c-.233.233-.233.543 0 .776L9.107 8.83c.233.233.543.233.776 0l1.942-1.942c.233-.233.233-.543 0-.776L9.883 4.17c-.233-.233-.543-.233-.776 0Z"/></g><defs><clipPath id="clip0_2390_4362"><path fill="#fff" transform="translate(0 .5)" d="M0 0h12v12H0z"/></clipPath></defs></svg>